<svg id="Iconly_Light-Outline_Time_Circle" data-name="Iconly/Light-Outline/Time Circle" xmlns="http://www.w3.org/2000/svg" width="20" height="20" viewBox="0 0 20 20">
  <g id="Time_Circle" data-name="Time Circle">
    <path id="Combined_Shape" data-name="Combined Shape" d="M0,10A10,10,0,1,1,10,20,10.011,10.011,0,0,1,0,10Zm1.5,0A8.5,8.5,0,1,0,10,1.5,8.51,8.51,0,0,0,1.5,10Zm11.547,3.587-3.77-2.249a.754.754,0,0,1-.366-.644V5.845a.75.75,0,0,1,1.5,0v4.422l3.4,2.03a.751.751,0,0,1-.769,1.29Z"/>
  </g>
</svg>
