<svg xmlns="http://www.w3.org/2000/svg" width="20.337" height="20.369" viewBox="0 0 20.337 20.369">
  <path id="Combined_Shape" data-name="Combined Shape" d="M5.753,20.369C2.312,20.369,0,17.953,0,14.359V6.045C0,2.452,2.312.036,5.753.036h3.74a.75.75,0,0,1,0,1.5H5.753C3.169,1.536,1.5,3.307,1.5,6.045v8.314c0,2.739,1.669,4.509,4.252,4.509h8.825c2.584,0,4.253-1.77,4.253-4.509V10.331a.75.75,0,0,1,1.5,0v4.028c0,3.594-2.313,6.009-5.754,6.009ZM6.1,14.928a.753.753,0,0,1-.751-.769l.095-3.779A2.908,2.908,0,0,1,6.3,8.388L13.771.915a3.139,3.139,0,0,1,4.431,0l1.218,1.217a3.133,3.133,0,0,1,0,4.432l-7.51,7.51a2.9,2.9,0,0,1-2.065.855ZM7.358,9.449a1.412,1.412,0,0,0-.415.967l-.075,3.011H9.845a1.409,1.409,0,0,0,1-.416l5.834-5.834L13.156,3.651ZM17.743,6.119l.616-.616a1.634,1.634,0,0,0,0-2.309L17.142,1.976a1.638,1.638,0,0,0-2.311,0l-.614.614Z" fill="#e6e6f2"/>
</svg>
