<svg id="Iconly_Light-Outline_Heart" data-name="Iconly/Light-Outline/Heart" xmlns="http://www.w3.org/2000/svg" width="20.472" height="19.501" viewBox="0 0 20.472 19.501">
  <g id="Heart" transform="translate(0 0)">
    <path id="Combined_Shape" data-name="Combined Shape" d="M9.879,19.41C9.566,19.239,2.188,15.158.4,9.581-.733,6.058.523,1.632,4.578.325a6.724,6.724,0,0,1,5.657.715A6.864,6.864,0,0,1,13.865.015a6.626,6.626,0,0,1,2.022.31c4.059,1.31,5.319,5.734,4.192,9.256-.725,2.3-2.5,4.632-5.274,6.923A29.977,29.977,0,0,1,10.6,19.409a.76.76,0,0,1-.36.093A.747.747,0,0,1,9.879,19.41ZM5.038,1.753C1.757,2.811.933,6.34,1.824,9.123c1.389,4.323,6.79,7.8,8.412,8.761a30.034,30.034,0,0,0,4.252-3.093A13.338,13.338,0,0,0,18.65,9.127c.89-2.784.064-6.314-3.222-7.374a5.295,5.295,0,0,0-4.73.792.762.762,0,0,1-.461.157.744.744,0,0,1-.45-.15,5.232,5.232,0,0,0-4.748-.8ZM15.407,6.936a2.024,2.024,0,0,0-1.4-1.769.75.75,0,0,1,.461-1.428A3.526,3.526,0,0,1,16.9,6.814a.75.75,0,0,1-.687.808l-.062,0A.75.75,0,0,1,15.407,6.936Z" transform="translate(0 0)"/>
  </g>
</svg>
