<svg id="Iconly_Bold_3_User" data-name="Iconly/Bold/3 User" xmlns="http://www.w3.org/2000/svg" width="22" height="16" viewBox="0 0 22 16">
  <g id="_3_User" data-name="3 User">
    <path id="_3_Friends" data-name="3 Friends" d="M4.588,13.28c0-2.177,2.911-2.741,6.361-2.741,3.431,0,6.36.544,6.36,2.721S14.4,16,10.949,16C7.518,16,4.588,15.456,4.588,13.28Zm14.5.4A4.453,4.453,0,0,0,16.431,9.3a.045.045,0,0,1-.029-.047.038.038,0,0,1,.032-.026,15.49,15.49,0,0,1,3.244.284,2.76,2.76,0,0,1,2.131,1.3,1.927,1.927,0,0,1,0,1.67c-.461,1-1.944,1.319-2.521,1.4l-.027,0A.183.183,0,0,1,19.086,13.684Zm-16.375.205c-.576-.083-2.06-.4-2.52-1.4a1.913,1.913,0,0,1,0-1.669,2.756,2.756,0,0,1,2.13-1.305,15.644,15.644,0,0,1,3.244-.283.037.037,0,0,1,.032.025.046.046,0,0,1-.028.048,4.449,4.449,0,0,0-2.656,4.38.182.182,0,0,1-.176.208ZM6.74,4.233a4.209,4.209,0,1,1,8.419,0,4.209,4.209,0,1,1-8.419,0Zm9.823,3.609a3.4,3.4,0,0,1-.483-.047.159.159,0,0,1-.106-.245A5.841,5.841,0,0,0,15.889.939a.106.106,0,0,1-.016-.111.13.13,0,0,1,.083-.049,3.507,3.507,0,0,1,.708-.073A3.576,3.576,0,0,1,20.088,5.22a3.51,3.51,0,0,1-3.429,2.623ZM1.912,5.22A3.576,3.576,0,0,1,5.336.706a3.53,3.53,0,0,1,.709.073.135.135,0,0,1,.082.049.1.1,0,0,1-.016.11A5.84,5.84,0,0,0,6.027,7.55a.159.159,0,0,1-.107.245,3.281,3.281,0,0,1-.483.047h-.1A3.512,3.512,0,0,1,1.912,5.22Z"/>
  </g>
</svg>
