<svg id="Iconly_Light-Outline_Arrow_-_Right_Square" data-name="Iconly/Light-Outline/Arrow - Right Square" xmlns="http://www.w3.org/2000/svg" width="20" height="20" viewBox="0 0 20 20">
  <g id="Arrow_-_Right_Square" data-name="Arrow - Right Square">
    <path id="Combined_Shape" data-name="Combined Shape" d="M5.916,20C2.377,20,0,17.723,0,14.334V5.665C0,2.276,2.377,0,5.916,0h8.168C17.623,0,20,2.276,20,5.665v8.67C20,17.723,17.623,20,14.084,20ZM1.5,5.665v8.67c0,2.531,1.733,4.166,4.415,4.166h8.168c2.683,0,4.416-1.635,4.416-4.166V5.665c0-2.53-1.733-4.164-4.416-4.164H5.916C3.234,1.5,1.5,3.135,1.5,5.665Zm8.291,8.612a.75.75,0,0,1,0-1.059L12.27,10.75H5.914a.75.75,0,1,1,0-1.5H12.27L9.793,6.783a.75.75,0,0,1,1.058-1.062l3.764,3.748h0a.747.747,0,0,1,0,1.059h0l-3.764,3.748a.749.749,0,0,1-1.06,0Z"/>
  </g>
</svg>
