<svg xmlns="http://www.w3.org/2000/svg" width="15.537" height="15" viewBox="0 0 15.537 15">
  <path id="Combined_Shape" data-name="Combined Shape" d="M3.354,15A3.344,3.344,0,0,1,0,11.673V3.327A3.344,3.344,0,0,1,3.354,0H7.042A3.345,3.345,0,0,1,10.4,3.327v.7a.568.568,0,0,1-1.135,0v-.7a2.213,2.213,0,0,0-2.221-2.2H3.354a2.212,2.212,0,0,0-2.219,2.2v8.346a2.213,2.213,0,0,0,2.219,2.2h3.7a2.206,2.206,0,0,0,2.213-2.193v-.707a.568.568,0,0,1,1.135,0v.707A3.337,3.337,0,0,1,7.05,15Zm9-4.916a.559.559,0,0,1,0-.8L13.6,8.062H5.86a.562.562,0,1,1,0-1.125H13.6L12.355,5.712a.559.559,0,0,1,0-.8.571.571,0,0,1,.8,0l2.2,2.176a.558.558,0,0,1,.178.381v0s0,.007,0,.01,0,.009,0,.014,0,.009,0,.014,0,.006,0,.009v0A.554.554,0,0,1,15.5,7.7v0l0,.008,0,.005,0,.005,0,.008h0a.553.553,0,0,1-.084.131.569.569,0,0,1-.043.045l-2.2,2.177a.571.571,0,0,1-.8,0Z" fill="#b8b8cc"/>
</svg>
