<svg xmlns="http://www.w3.org/2000/svg" xmlns:xlink="http://www.w3.org/1999/xlink" width="256.819" height="62.605" viewBox="0 0 256.819 62.605">
  <defs>
    <radialGradient id="radial-gradient" cx="0.5" cy="0.5" r="0.5" gradientUnits="objectBoundingBox">
      <stop offset="0" stop-color="#1a9aff"/>
      <stop offset="0.228" stop-color="#c91aff"/>
      <stop offset="0.485" stop-color="#ffee1a"/>
      <stop offset="0.746" stop-color="#1aff7b"/>
      <stop offset="1" stop-color="#1a9aff"/>
    </radialGradient>
  </defs>
  <g id="Group_11" data-name="Group 11" transform="translate(-35.375 -49.502)">
    <g id="Group_9" data-name="Group 9" transform="translate(35.375 49.502)">
      <path id="Path_9140" data-name="Path 9140" d="M373.351-738.607a18.746,18.746,0,0,0-8.984,3.822,12.42,12.42,0,0,1-2.113,1.341c-6.339,2.682-9.2,8.58-7.478,15.36l.331,1.341-.625.863a9.775,9.775,0,0,0-1.213,9.922,9.041,9.041,0,0,1,.625,3.436,12.486,12.486,0,0,0,1.635,5.971,14.378,14.378,0,0,0,7.221,6.651,11.761,11.761,0,0,0,5.328.974,12.66,12.66,0,0,0,5.677-1.121,8.72,8.72,0,0,1,3.142-.643c1.121-.092,2.554-.239,3.2-.349.772-.129,1.231-.147,1.36-.018a57.082,57.082,0,0,1,.423,5.714c.257,5.916.331,6.3,1.231,6.522a1.455,1.455,0,0,0,1.672-.864c.147-.331,1.029-3.087,1.948-6.118.937-3.032,1.782-5.659,1.874-5.843.22-.423.478-.4,1.837.239a11.165,11.165,0,0,0,5.843,1.011c1.066-.073,2.094-.129,2.3-.129a10.552,10.552,0,0,1,1.984.661,12.431,12.431,0,0,0,11.483-.478,40.668,40.668,0,0,0,6.816-6.835c1.139-1.874,1.4-2.885,1.433-5.622a8.8,8.8,0,0,1,.514-3.748,9.758,9.758,0,0,0-1.3-9.168c-.7-.974-.7-.882-.276-2.885a16.7,16.7,0,0,0-.165-5.953,14.177,14.177,0,0,0-4.777-7.313,17.053,17.053,0,0,0-2.388-1.4,12.98,12.98,0,0,1-2.3-1.451,15.238,15.238,0,0,0-5.053-2.572,16.627,16.627,0,0,0-7.055.092,14.058,14.058,0,0,0-8.047,5.824,93.572,93.572,0,0,0-6.284,12.255c-1.617,3.8-1.856,4.593-1.58,5.108.294.551,1.268.7,5.328.827,3.969.129,4.961.294,4.961.79.018.661-6.5,21.386-6.761,21.478a.439.439,0,0,1-.441-.092,81.376,81.376,0,0,1-.551-8.617c-.2-4.63-.423-8.488-.514-8.562a34.454,34.454,0,0,0-4.281-.478,19.5,19.5,0,0,1-4.428-.57,1.051,1.051,0,0,1-.294-.753c0-.276,1.654-4.832,3.675-10.087,2.021-5.273,3.8-10.013,3.95-10.565a8.251,8.251,0,0,0,.018-4.281c-.643-1.892-2.37-3.179-4.851-3.638A11.015,11.015,0,0,0,373.351-738.607Zm4.832,3.215c1.4.735,1.856,2,1.36,3.84-.11.4-.772,2.2-1.488,3.987l-1.286,3.27h-.827a14.184,14.184,0,0,0-4.759,1.1,3.024,3.024,0,0,1-1.3.386,16.561,16.561,0,0,1-.7-2.848l-.533-2.738,1.029-.974c1.543-1.415,2.646-1.8,5.328-1.8,1.966-.018,2.186-.055,2.554-.423a1.344,1.344,0,0,0-.073-2c-.9-.772-3.822-.79-6.1-.037a11.458,11.458,0,0,0-3.4,1.892.8.8,0,0,1-.5.276c-.349,0-.955-.735-.974-1.157,0-.68,3.473-2.425,5.953-2.995A12.281,12.281,0,0,1,378.183-735.391Zm24.877.716c1.837.239,4.244,1.452,4.244,2.131a1.884,1.884,0,0,1-.514.919l-.5.57-1.415-.753a9.976,9.976,0,0,0-7.349-.919,1.433,1.433,0,0,0-.68,2.48c.312.276.68.331,2.333.294a14.825,14.825,0,0,1,3.013.2c1.213.294,2.9,1.323,2.9,1.764,0,.165-.129.863-.257,1.562-.147.7-.367,2.2-.5,3.362a8.635,8.635,0,0,1-.441,2.26c-.165.129-.478.055-1.029-.257-2.976-1.654-7.772-1.856-11.391-.5-1.231.459-1.69.937-1.69,1.672a1.6,1.6,0,0,0,1.249,1.47,9.65,9.65,0,0,0,1.764-.478,10.8,10.8,0,0,1,3.289-.57c3.068-.147,5.328.551,6.89,2.15l.68.7-.312,1.47a3.861,3.861,0,0,1-1.58,2.719c-1.58,1.6-2.738,2.278-3.84,2.278-1.47,0-2.774-1.286-3.289-3.234-.5-1.893-1.709-2.425-6.063-2.646a14.794,14.794,0,0,1-3.2-.349c-.184-.184.625-2.333,1.58-4.226a10.3,10.3,0,0,1,6.284-4.52,15.772,15.772,0,0,1,6.78.184,15.881,15.881,0,0,0,2.15.459,1.614,1.614,0,0,0,1.268-1.47c0-.919-.606-1.341-2.664-1.837a19.819,19.819,0,0,0-8.047-.11c-2.3.514-2.407.312-1.047-1.764a11.149,11.149,0,0,1,8.121-5.089A10.364,10.364,0,0,1,403.06-734.675Zm-38.8,4.171a8.676,8.676,0,0,1,1.525,2.848c.331.937.367,1.213.184,1.433a.774.774,0,0,1-.459.276c-.643,0-2.958,1.415-4.024,2.462-1.415,1.4-2.866,3.766-2.866,4.685a1.485,1.485,0,0,0,2.113,1.378,3,3,0,0,0,.772-1.065,3.215,3.215,0,0,1,1.929-1.856,3.031,3.031,0,0,1,2.554-.276c.625.349,1.1,1.617,1.451,3.932.864,5.512,2.333,8.69,4.593,9.922.919.5,1.213.551,4.8.827a25.7,25.7,0,0,1,4.005.478,29.853,29.853,0,0,1,.312,4.263l.129,4.079-.533.459a8.657,8.657,0,0,1-6.578,1.782c-2.738-.4-6.265-2.168-7.423-3.711-.827-1.066-1.488-1.4-2.2-1.1a1.579,1.579,0,0,0-.882,1.709,7.746,7.746,0,0,0,1.121,1.745,11.169,11.169,0,0,1,1.011,1.488c0,.423-.992,1.139-1.562,1.139-.992,0-3.252-2.039-3.785-3.436a6.1,6.1,0,0,1,1.4-5.016c1.268-1.139,1.378-1.286,1.378-1.782,0-1.341-1.157-1.837-2.517-1.066-1.69.937-3.326.79-3.73-.331a6.106,6.106,0,0,0-.643-1.231,8.149,8.149,0,0,1-1.01-3.436,5.714,5.714,0,0,1,.753-2.848l.349-.423.4.478c.239.276.7.845,1.047,1.286a10.546,10.546,0,0,0,6.375,3.711l1.36.221v.827a13.359,13.359,0,0,0,.276,2.113c1.047,4.924,5.6,8.029,11.41,7.772,1.856-.074,2.554-.386,2.756-1.157.294-1.158-.5-1.929-1.966-1.929a10.436,10.436,0,0,1-6.633-2.958,8.312,8.312,0,0,1-2.058-2.94,13.6,13.6,0,0,1-.919-2.425,2.7,2.7,0,0,0-2.278-2.15,12.9,12.9,0,0,1-3.748-1.029c-1.837-.919-3.105-2.554-4.134-5.273-1.948-5.181-1.451-8.893,1.58-11.887,1.139-1.139,3.068-2.37,3.711-2.388A1.257,1.257,0,0,1,364.256-730.5Zm47.274.184a10.761,10.761,0,0,1,4.8,6.6c.717,2.811.257,5.292-1.69,9.315-1.58,3.215-3.142,4.538-5.953,5.089-2.058.386-2.352.606-2.719,2.058-.864,3.307-4.942,6.21-10.234,7.294-1.654.331-2.315.9-2.131,1.837.184.955.68,1.213,2.315,1.213A18.086,18.086,0,0,0,404-698.994a13.031,13.031,0,0,0,4.1-4.171,8.877,8.877,0,0,0,.643-2.095l.129-1.084,1.121-.239a10.4,10.4,0,0,0,6.578-5.089c.386-.68.808-1.231.955-1.231.423,0,.864,1.139.955,2.5a7.434,7.434,0,0,1-.9,4.042,2.663,2.663,0,0,0-.349,1.084,2.1,2.1,0,0,1-1.139,1.764,2.32,2.32,0,0,1-2.223-.5c-1.084-.717-1.837-.772-2.407-.2a1.5,1.5,0,0,0-.478,1.139c0,.57.11.735.827,1.231a5.2,5.2,0,0,1,2,4.244c.018,1.837-.239,2.278-1.8,3.05-1.617.808-2.848.955-3.4.4a1.086,1.086,0,0,1,.092-1.69,5.417,5.417,0,0,0,1.543-2.5,1.638,1.638,0,0,0-1.378-1.341c-.717,0-1.084.257-1.837,1.286a11.159,11.159,0,0,1-3.62,2.94,19.793,19.793,0,0,1-2.26.717c-5.071,1.323-8.158.533-9.444-2.37a4.939,4.939,0,0,1-.2-3.9,8.676,8.676,0,0,1,.57-1.543,3.388,3.388,0,0,1,1.415-.349,20.567,20.567,0,0,0,6.026-1.672,9.969,9.969,0,0,0,2.94-2.186c2.572-2.572,3.6-5.255,4.391-11.483.2-1.617,1.231-2.7,2.37-2.5a7.589,7.589,0,0,1,3.068,2.168c.643,1.249,1.782,1.654,2.554.882.68-.68.643-1.139-.2-2.793a11.848,11.848,0,0,0-5.181-5.089c-1.617-.772-1.617-.79-1.488-1.36.386-1.8,1.617-3.987,2.241-3.987A4.526,4.526,0,0,1,411.53-730.32Zm-36.2,9.481c0,.239-2.242,6.3-3.068,8.25a.511.511,0,0,1-.441.239c-.257,0-.4-.239-.606-.974a27.261,27.261,0,0,1-.955-4.538l-.11-1.213,1.01-.7C372.91-720.987,375.335-721.593,375.335-720.84Z" transform="translate(-347.316 741.381)" fill="url(#radial-gradient)"/>
      <g id="Group_3" data-name="Group 3" transform="translate(0 0)">
        <path id="Path_9139" data-name="Path 9139" d="M524.568-751.787a2.684,2.684,0,0,1-1.837,1.764l-1.231.57,1.3.643c1.268.625,1.341.7,1.856,1.856l.533,1.213.643-1.268a2.9,2.9,0,0,1,1.892-1.837l1.249-.57-1.286-.625c-1.268-.606-1.323-.68-1.819-1.8a4.72,4.72,0,0,0-.606-1.158A6.142,6.142,0,0,0,524.568-751.787Z" transform="translate(-485.305 753)" fill="#afbeca"/>
        <path id="Path_9141" data-name="Path 9141" d="M352.767-700.492a8.128,8.128,0,0,0-4.391,4.906,9.746,9.746,0,0,0-.018,5.383c.331,1.084,1.4,3.05,1.562,2.9a5.746,5.746,0,0,0-.239-1.268,17.478,17.478,0,0,1,.037-6.706,9.4,9.4,0,0,1,3.491-5.089C354.053-700.969,353.906-701.006,352.767-700.492Z" transform="translate(-343.672 710.432)" fill="#afbeca"/>
        <path id="Path_9142" data-name="Path 9142" d="M326.833-631.445a2.227,2.227,0,0,1-1.378,1.433l-.955.5.937.459a2.341,2.341,0,0,1,1.378,1.36l.459.919.423-.9a2.339,2.339,0,0,1,1.36-1.378l.955-.459-.955-.478a2.393,2.393,0,0,1-1.378-1.451l-.441-.956Z" transform="translate(-324.5 654.558)" fill="#afbeca"/>
        <path id="Path_9143" data-name="Path 9143" d="M532.58-589.447a1.663,1.663,0,0,1-.955.974,1.493,1.493,0,0,0-.625.331c0,.055.276.2.606.331a1.685,1.685,0,0,1,.974.974l.367.753.331-.716a1.538,1.538,0,0,1,.956-.955c.79-.276.79-.441.018-.716a1.685,1.685,0,0,1-.974-.974l-.367-.753Z" transform="translate(-493.06 620.111)" fill="#afbeca"/>
        <path id="Path_9144" data-name="Path 9144" d="M734.337-552.722a1.726,1.726,0,0,1-1.084,1.029l-.753.312.753.367a2.257,2.257,0,0,1,1.121,1.139l.367.753.4-.79A1.921,1.921,0,0,1,736.3-551l.753-.294-.827-.423a2.1,2.1,0,0,1-1.066-.992C734.833-553.512,734.7-553.512,734.337-552.722Z" transform="translate(-657.538 590.002)" fill="#afbeca"/>
        <path id="Path_9145" data-name="Path 9145" d="M718.937-509.631a1.993,1.993,0,0,0-.937,1.543,1.94,1.94,0,0,0,1.654,1.507,1.977,1.977,0,0,0,1.654-1.451,1.77,1.77,0,0,0-.9-1.58A1.24,1.24,0,0,0,718.937-509.631Z" transform="translate(-645.702 554.535)" fill="#afbeca"/>
        <path id="Path_9146" data-name="Path 9146" d="M646.607-493.979a15.67,15.67,0,0,1-6.743,5.383,9.807,9.807,0,0,1-4.906.184c-.937-.367-.716-.073.312.423,4.446,2.095,9.848-.423,11.52-5.4a4.848,4.848,0,0,0,.331-1.213A2.085,2.085,0,0,0,646.607-493.979Z" transform="translate(-577.432 542.08)" fill="#afbeca"/>
        <path id="Path_9147" data-name="Path 9147" d="M461.958-459.832c-.606,1.249-.661,1.3-1.8,1.782a4.026,4.026,0,0,0-1.157.643,3.913,3.913,0,0,0,1.157.625c1.121.478,1.194.533,1.8,1.782l.606,1.286.643-1.286c.625-1.249.7-1.323,1.8-1.782a3.911,3.911,0,0,0,1.157-.625,3.737,3.737,0,0,0-1.157-.643c-1.121-.459-1.194-.533-1.8-1.764l-.643-1.286Z" transform="translate(-434.288 514.731)" fill="#afbeca"/>
        <path id="Path_9148" data-name="Path 9148" d="M431.482-458.612a1.566,1.566,0,0,0,1.084,2.664,1.576,1.576,0,0,0,1.213-2.664A1.624,1.624,0,0,0,431.482-458.612Z" transform="translate(-411.455 513.089)" fill="#afbeca"/>
      </g>
    </g>
    <text id="BattleBrains" transform="translate(133.194 87.269)" fill="#fff" font-size="24" font-family="Montserrat-ExtraBold, Montserrat" font-weight="800"><tspan x="0" y="0">BattleBrains</tspan></text>
  </g>
</svg>
