<svg xmlns="http://www.w3.org/2000/svg" width="17.594" height="17.594" viewBox="0 0 17.594 17.594">
  <path id="thumbs-up" d="M3.688,7.5H.335A.343.343,0,0,0,0,7.847v8.4a.343.343,0,0,0,.335.35H3.688a.343.343,0,0,0,.335-.35v-8.4A.343.343,0,0,0,3.688,7.5Zm12.406.35A1.716,1.716,0,0,0,14.417,6.1H10.2a10.471,10.471,0,0,0,.533-2.8c0-1.518-1.236-2.8-2.012-2.8A2.053,2.053,0,0,0,7.5.926a.359.359,0,0,0-.125.274V3.572L5.445,7.939l-.565.295a.354.354,0,0,0-.186.313v6.3a.36.36,0,0,0,.1.248,3.667,3.667,0,0,0,2.249.8h6.2a1.5,1.5,0,0,0,1.281-.745,1.635,1.635,0,0,0,.07-1.529,1.6,1.6,0,0,0,.671-2.1,1.576,1.576,0,0,0,.828-1.4,1.6,1.6,0,0,0-.436-1.1A1.769,1.769,0,0,0,16.094,7.847Z" transform="translate(0.75 0.25)" fill="none" stroke="#b8b8cc" stroke-width="1.5"/>
</svg>
